<svg xmlns="http://www.w3.org/2000/svg" viewBox="0 0 512 512" style="enable-background:new 0 0 512 512" xml:space="preserve"><path style="fill:#eaeae9" d="M6.467 225.586v210.802c0 10.571 8.599 19.169 19.169 19.169h460.727c10.571 0 19.169-8.599 19.169-19.169V225.586H6.467zm447.525 112.512c0 39.566-32.189 71.757-71.755 71.757s-71.757-32.19-71.757-71.757 32.19-71.755 71.757-71.755 71.755 32.189 71.755 71.755zm-253.554 0c0 39.566-32.189 71.757-71.755 71.757-39.567 0-71.757-32.19-71.757-71.757s32.189-71.755 71.757-71.755c39.566 0 71.755 32.189 71.755 71.755z"/><path d="M26.907 436.388V225.586H6.467v210.802c0 10.571 8.599 19.169 19.169 19.169h20.44c-10.57.001-19.169-8.599-19.169-19.169z"/><path style="fill:#2b4b5b" d="M382.235 270.655c-37.19 0-67.445 30.255-67.445 67.444 0 37.189 30.255 67.445 67.445 67.445 37.188 0 67.444-30.255 67.444-67.445.001-37.189-30.255-67.444-67.444-67.444zm-.002 24.615c23.617 0 42.83 19.214 42.83 42.829 0 23.616-19.214 42.828-42.83 42.828-23.615 0-42.827-19.212-42.827-42.828 0-23.615 19.213-42.829 42.827-42.829z"/><path style="fill:#5a7884" d="M382.233 369.071c17.079 0 30.973-13.894 30.973-30.971 0-17.078-13.895-30.972-30.973-30.972-17.077 0-30.97 13.895-30.97 30.972 0 17.078 13.894 30.971 30.97 30.971zM128.68 369.071c17.079 0 30.973-13.894 30.973-30.971 0-17.078-13.895-30.972-30.973-30.972-17.077 0-30.97 13.895-30.97 30.972-.001 17.078 13.893 30.971 30.97 30.971z"/><path style="fill:#abb2ba" d="M486.363 142.275H25.637c-6.409 0-11.624 5.215-11.624 11.624v67.375h483.975v-67.375c-.001-6.409-5.216-11.624-11.625-11.624zm-268.097 57.012a5.935 5.935 0 0 1-5.928 5.928H39.344a5.936 5.936 0 0 1-5.928-5.928v-32.984a5.936 5.936 0 0 1 5.928-5.928h172.993a5.935 5.935 0 0 1 5.928 5.928l.001 32.984zm172.78-12.616H256a5.936 5.936 0 0 1-5.928-5.928 5.935 5.935 0 0 1 5.928-5.928h135.046a5.935 5.935 0 0 1 5.928 5.928 5.935 5.935 0 0 1-5.928 5.928zm45.798 19.622c-14.088 0-25.55-11.462-25.55-25.55 0-14.089 11.462-25.551 25.55-25.551 14.089 0 25.551 11.462 25.551 25.551 0 14.088-11.461 25.55-25.551 25.55z"/><path d="M38.532 142.275H25.637c-6.409 0-11.624 5.215-11.624 11.624v67.375h12.895v-67.375c-.001-6.409 5.214-11.624 11.624-11.624z"/><path style="fill:#2b4b5b" d="M128.682 270.655c-37.19 0-67.445 30.255-67.445 67.444 0 37.189 30.255 67.445 67.445 67.445 37.188 0 67.444-30.255 67.444-67.445 0-37.189-30.255-67.444-67.444-67.444zm-.002 24.615c23.617 0 42.83 19.214 42.83 42.829 0 23.616-19.213 42.828-42.83 42.828-23.615 0-42.827-19.212-42.827-42.828-.001-23.615 19.213-42.829 42.827-42.829z"/><path d="M110.534 338.099c0-14.88 10.548-27.339 24.559-30.301a30.942 30.942 0 0 0-6.412-.672c-17.077 0-30.97 13.895-30.97 30.972 0 17.078 13.894 30.971 30.97 30.971 2.199 0 4.342-.234 6.412-.672-14.011-2.96-24.559-15.417-24.559-30.298z"/><path d="M74.244 338.098c0-34.994 26.792-63.84 60.942-67.124a67.877 67.877 0 0 0-6.504-.32c-37.19 0-67.445 30.255-67.445 67.444 0 37.189 30.255 67.445 67.445 67.445 2.195 0 4.362-.113 6.504-.32-34.15-3.282-60.942-32.13-60.942-67.125zM364.087 338.099c0-14.88 10.548-27.339 24.559-30.301a30.942 30.942 0 0 0-6.412-.672c-17.077 0-30.97 13.895-30.97 30.972 0 17.078 13.894 30.971 30.97 30.971 2.199 0 4.342-.234 6.412-.672-14.011-2.96-24.559-15.417-24.559-30.298z"/><path d="M327.797 338.098c0-34.994 26.792-63.84 60.942-67.124a67.877 67.877 0 0 0-6.504-.32c-37.19 0-67.445 30.255-67.445 67.444 0 37.189 30.255 67.445 67.445 67.445 2.195 0 4.362-.113 6.504-.32-34.148-3.282-60.942-32.13-60.942-67.125z"/><path style="fill:#e84934" d="M436.844 194.437c7.552 0 13.695-6.143 13.695-13.694 0-7.552-6.143-13.695-13.695-13.695-7.551 0-13.694 6.143-13.694 13.695 0 7.551 6.143 13.694 13.694 13.694z"/><path style="fill:#eaeae9" d="M311.997 112.36h38.263v18.054h-38.263z"/><path style="fill:#2b4b5b" d="M439.115 130.418V35.02H76.316v95.398h22.02V62.96a5.934 5.934 0 0 1 5.928-5.928h306.902a5.934 5.934 0 0 1 5.928 5.928v67.458h22.021z"/><g style="opacity:.1"><path d="M76.316 35.02h13.053v95.394H76.316zM424.217 57.032h-13.05a5.934 5.934 0 0 1 5.928 5.928v67.458h13.05V62.96a5.933 5.933 0 0 0-5.928-5.928z"/></g><path style="fill:#eaeae9" d="M261.875 112.36h38.262v18.054h-38.262zM161.641 112.36h38.262v18.054h-38.262z"/><path style="fill:#57badd" d="M45.272 172.227h161.134v21.127H45.272z"/><path style="fill:#eaeae9" d="M211.763 112.36h38.262v18.054h-38.262z"/><path style="fill:#2b4b5b" d="M421.274 459.874h50.658v17.112h-50.658zM45.272 459.874H95.93v17.112H45.272z"/><path d="M421.274 459.874h12.927v17.112h-12.927zM45.272 459.874h12.927v17.112H45.272z"/><path d="M486.363 128.262h-33.236v-99.17a8.082 8.082 0 0 0-8.084-8.084H70.388a8.082 8.082 0 0 0-8.084 8.084v99.171H25.637C11.501 128.262 0 139.764 0 153.899v282.488c0 14.136 11.501 25.637 25.637 25.637h5.623v20.884a8.082 8.082 0 0 0 8.084 8.084h62.515a8.082 8.082 0 0 0 8.084-8.084v-20.884h25.754c4.466 0 8.084-3.618 8.084-8.084s-3.618-8.084-8.084-8.084H25.637c-5.221 0-9.468-4.247-9.468-9.468V235.287h479.663v201.101c0 5.221-4.247 9.468-9.468 9.468h-318.69c-4.466 0-8.084 3.618-8.084 8.084s3.618 8.084 8.084 8.084h239.588v20.884a8.082 8.082 0 0 0 8.084 8.084h62.515a8.082 8.082 0 0 0 8.084-8.084v-20.884h.418c14.136 0 25.637-11.501 25.637-25.637V153.899c0-14.135-11.501-25.637-25.637-25.637zM93.775 462.025v12.8H47.428v-12.8h46.347zm376.002 12.8H423.43v-12.8h46.346v12.8zM78.472 37.176h358.487v91.086H419.25V62.96a8.082 8.082 0 0 0-8.084-8.084H104.264a8.082 8.082 0 0 0-8.084 8.084v65.302H78.472V37.176zm285.799 91.086v-21.826a8.082 8.082 0 0 0-8.084-8.084H155.71a8.082 8.082 0 0 0-8.084 8.084v21.826h-35.278V71.045h290.734v57.218l-38.811-.001zm-100.239 0V114.52h33.95v13.742h-33.95zm-50.118 0V114.52h33.95v13.742h-33.95zm-50.119 0V114.52h33.95v13.742h-33.95zm150.356-13.742h33.952v13.742h-33.952V114.52zM16.168 219.118v-65.219c0-5.221 4.247-9.468 9.468-9.468h460.728c5.221 0 9.468 4.247 9.468 9.468v65.219H16.168z"/><path d="M436.844 153.036c-15.277 0-27.706 12.429-27.706 27.707 0 15.277 12.429 27.706 27.706 27.706 15.278 0 27.707-12.429 27.707-27.706 0-15.278-12.429-27.707-27.707-27.707zm0 39.245c-6.362 0-11.538-5.176-11.538-11.538s5.176-11.539 11.538-11.539 11.539 5.177 11.539 11.539-5.176 11.538-11.539 11.538zM427.22 338.099c0-24.806-20.181-44.985-44.986-44.985-24.805 0-44.983 20.18-44.983 44.985s20.179 44.984 44.983 44.984c24.805 0 44.986-20.179 44.986-44.984zm-44.987 28.816c-15.888 0-28.814-12.926-28.814-28.815 0-15.889 12.926-28.816 28.814-28.816 15.89 0 28.818 12.927 28.818 28.816s-12.926 28.815-28.818 28.815zM128.68 293.115c-24.805 0-44.983 20.18-44.983 44.985s20.179 44.984 44.983 44.984c24.806 0 44.986-20.18 44.986-44.984 0-24.806-20.18-44.985-44.986-44.985zm0 73.8c-15.888 0-28.814-12.926-28.814-28.815 0-15.889 12.926-28.816 28.814-28.816 15.89 0 28.818 12.927 28.818 28.816s-12.928 28.815-28.818 28.815zM391.046 172.659H256a8.082 8.082 0 0 0-8.084 8.084 8.082 8.082 0 0 0 8.084 8.084h135.046a8.082 8.082 0 0 0 8.084-8.084 8.082 8.082 0 0 0-8.084-8.084zM212.338 158.219H39.344a8.082 8.082 0 0 0-8.084 8.084v32.984a8.082 8.082 0 0 0 8.084 8.084h172.993a8.082 8.082 0 0 0 8.084-8.084v-32.984a8.083 8.083 0 0 0-8.083-8.084zm-8.085 32.984H47.428v-16.815h156.825v16.815z"/><path d="M210.139 338.098c0-44.916-36.541-81.457-81.456-81.457s-81.458 36.541-81.458 81.457 36.542 81.458 81.458 81.458 81.456-36.542 81.456-81.458zm-81.457 65.29c-36.001 0-65.289-29.289-65.289-65.289s29.289-65.288 65.289-65.288 65.288 29.289 65.288 65.288c0 36-29.288 65.289-65.288 65.289zM463.693 338.098c0-44.916-36.541-81.457-81.456-81.457s-81.458 36.541-81.458 81.457 36.542 81.458 81.458 81.458 81.456-36.542 81.456-81.458zm-146.747 0c0-36 29.289-65.288 65.289-65.288s65.288 29.289 65.288 65.288c0 36.001-29.289 65.289-65.288 65.289-36 .001-65.289-29.288-65.289-65.289zM238.583 321.018h33.953c4.466 0 8.084-3.618 8.084-8.084s-3.618-8.084-8.084-8.084h-33.953c-4.466 0-8.084 3.618-8.084 8.084s3.619 8.084 8.084 8.084zM238.583 348.504h33.953c4.466 0 8.084-3.618 8.084-8.084s-3.618-8.084-8.084-8.084h-33.953c-4.466 0-8.084 3.618-8.084 8.084s3.619 8.084 8.084 8.084zM238.583 375.991h33.953c4.466 0 8.084-3.618 8.084-8.084s-3.618-8.084-8.084-8.084h-33.953c-4.466 0-8.084 3.618-8.084 8.084s3.619 8.084 8.084 8.084z"/></svg>